<svg viewBox="0 0 20.9999 21" xmlns="http://www.w3.org/2000/svg" xmlns:xlink="http://www.w3.org/1999/xlink" width="20.999935" height="21.000015" fill="none" customFrame="#000000">
	<g id="Group">
		<path id="Vector" d="M20.9856 17.2843C20.9188 16.7797 20.6275 16.3446 20.1864 16.0906L15.0056 13.1077C14.3711 12.7424 13.5661 12.8487 13.0482 13.3666L12.0278 14.3871C11.7562 14.6587 11.3266 14.6827 11.0287 14.4429C10.2242 13.7956 9.4321 13.0832 8.67444 12.3255C7.91677 11.5678 7.20437 10.7758 6.55701 9.97126C6.31722 9.67327 6.34121 9.24371 6.61285 8.97212L7.63326 7.95167C8.15112 7.43385 8.25762 6.62897 7.89219 5.99431L4.90929 0.813532C4.6553 0.372404 4.22025 0.0811313 3.71563 0.014368C3.21096 -0.0525314 2.71509 0.115783 2.35514 0.475724L0.817547 2.01337C-0.25561 3.08657 -0.272845 5.04964 0.769016 7.54107C1.77083 9.93665 3.64038 12.5738 6.0332 14.9667C8.42612 17.3596 11.0633 19.2291 13.4589 20.2309C14.6853 20.7438 15.7835 21 16.7108 21C17.6672 21 18.4417 20.7273 18.9866 20.1824L20.5242 18.6447C20.8841 18.2848 21.0523 17.7889 20.9856 17.2843ZM14.6662 13.6973L19.847 16.6802C20.1032 16.8277 20.2723 17.0804 20.3111 17.3735C20.3436 17.6195 20.2797 17.8617 20.1349 18.0568L13.2497 14.1273L13.5293 13.8477C13.83 13.5469 14.2977 13.4851 14.6662 13.6973ZM3.62637 0.688849C3.9195 0.727628 4.17218 0.896804 4.31967 1.15302L7.30257 6.33379C7.51483 6.7024 7.45297 7.16992 7.15222 7.47063L6.89537 7.72748L2.94427 0.865056C3.10578 0.745453 3.29895 0.680504 3.50033 0.680504C3.5421 0.680504 3.58423 0.683271 3.62637 0.688849ZM18.5055 19.7013C17.6529 20.5539 15.9091 20.5181 13.7214 19.6032C11.4055 18.6348 8.84606 16.8173 6.51434 14.4856C4.18261 12.1539 2.36512 9.5944 1.39669 7.27859C0.481735 5.09078 0.44604 3.34704 1.29863 2.49441L2.44009 1.3529L6.39714 8.22571L6.13176 8.49108C5.61403 9.00886 5.56894 9.82852 6.02695 10.3978C6.68954 11.2213 7.41845 12.0317 8.19331 12.8066C8.96825 13.5815 9.77866 14.3104 10.6021 14.973C11.1713 15.431 11.991 15.3859 12.5088 14.8681L12.7509 14.626L19.6457 18.561L18.5055 19.7013Z" fill="rgb(255,255,255)" fill-rule="nonzero" />
	</g>
</svg>
