<svg viewBox="0 0 21.3389 20" xmlns="http://www.w3.org/2000/svg" xmlns:xlink="http://www.w3.org/1999/xlink" width="21.338928" height="20.000000" fill="none">
	<rect id="instagram" width="21.338913" height="20.000000" x="0.000000" y="0.000000" fill="rgb(255,255,255)" fill-opacity="0" />
	<g id="Group">
		<g id="Group">
			<path id="Vector" d="M14.6705 0L6.66841 0C2.98611 0 0 2.79875 0 6.25L0 13.75C0 17.2013 2.98611 20 6.66841 20L14.6705 20C18.3528 20 21.3389 17.2013 21.3389 13.75L21.3389 6.25C21.3389 2.79875 18.3528 0 14.6705 0ZM19.3384 13.75C19.3384 16.1625 17.2445 18.125 14.6705 18.125L6.66841 18.125C4.0944 18.125 2.00052 16.1625 2.00052 13.75L2.00052 6.25C2.00052 3.8375 4.0944 1.875 6.66841 1.875L14.6705 1.875C17.2445 1.875 19.3384 3.8375 19.3384 6.25L19.3384 13.75Z" fill="rgb(255,255,255)" fill-rule="nonzero" />
		</g>
	</g>
	<g id="Group">
		<g id="Group">
			<path id="Vector" d="M10.6694 5C7.72334 5 5.33472 7.23875 5.33472 10C5.33472 12.7612 7.72334 15 10.6694 15C13.6155 15 16.0042 12.7612 16.0042 10C16.0042 7.23875 13.6155 5 10.6694 5ZM10.6694 13.125C8.83163 13.125 7.33524 11.7225 7.33524 10C7.33524 8.27625 8.83163 6.875 10.6694 6.875C12.5073 6.875 14.0037 8.27625 14.0037 10C14.0037 11.7225 12.5073 13.125 10.6694 13.125Z" fill="rgb(255,255,255)" fill-rule="nonzero" />
		</g>
	</g>
	<g id="Group">
		<g id="Group">
			<path id="Vector" d="M16.4043 5.29148C16.7969 5.29148 17.1152 4.99319 17.1152 4.62523C17.1152 4.25727 16.7969 3.95898 16.4043 3.95898C16.0117 3.95898 15.6935 4.25727 15.6935 4.62523C15.6935 4.99319 16.0117 5.29148 16.4043 5.29148Z" fill="rgb(255,255,255)" fill-rule="evenodd" />
		</g>
	</g>
</svg>
