<svg viewBox="0 0 37.401 20" xmlns="http://www.w3.org/2000/svg" xmlns:xlink="http://www.w3.org/1999/xlink" width="37.401001" height="20.000000" fill="none" customFrame="#000000">
	<g id="vk">
		<path id="Vector" d="M37.2026 18.0622C37.1573 17.9707 37.1151 17.8948 37.0759 17.834C36.427 16.7387 35.1869 15.3942 33.3565 13.8002L33.3178 13.7637L33.2984 13.7458L33.2789 13.7275L33.2592 13.7275C32.4285 12.9852 31.9024 12.4861 31.6821 12.2306C31.279 11.7439 31.1887 11.2512 31.409 10.752C31.5647 10.3749 32.1493 9.57835 33.1616 8.3614C33.6941 7.71645 34.1158 7.19955 34.4272 6.81011C36.6733 4.01144 37.6471 2.22306 37.3483 1.44425L37.2323 1.26225C37.1544 1.15269 36.9532 1.05245 36.629 0.961035C36.3041 0.869813 35.8887 0.854728 35.3823 0.915521L29.7742 0.95183C29.6834 0.921657 29.5536 0.92447 29.3846 0.961035C29.2158 0.997601 29.1314 1.01595 29.1314 1.01595L29.0338 1.06165L28.9563 1.11657C28.8914 1.15288 28.82 1.21674 28.742 1.30803C28.6644 1.39899 28.5996 1.50575 28.5477 1.6274C27.9372 3.09967 27.243 4.46851 26.4639 5.73386C25.9835 6.48838 25.5423 7.14227 25.1395 7.69593C24.7371 8.2494 24.3996 8.65718 24.1272 8.91858C23.8543 9.18022 23.6081 9.38984 23.387 9.54818C23.1662 9.70659 22.9977 9.77352 22.881 9.74904C22.764 9.72455 22.6539 9.70026 22.5496 9.67597C22.3679 9.5664 22.2218 9.41739 22.1117 9.22881C22.0011 9.04023 21.9266 8.80287 21.8876 8.51693C21.8489 8.2308 21.826 7.98469 21.8194 7.77776C21.8134 7.57109 21.8162 7.27875 21.8293 6.90159C21.8428 6.52424 21.8489 6.26892 21.8489 6.13506C21.8489 5.67262 21.8585 5.17074 21.8778 4.62929C21.8975 4.08784 21.9133 3.65883 21.9266 3.34278C21.9399 3.02641 21.946 2.6917 21.946 2.33883C21.946 1.98596 21.9231 1.70922 21.8778 1.50837C21.8331 1.30777 21.7644 1.11305 21.6739 0.924278C21.5828 0.735697 21.4496 0.589819 21.2747 0.486259C21.0995 0.382827 20.8816 0.300747 20.6224 0.239761C19.9342 0.0938189 19.058 0.0148707 17.9932 0.00259691C15.5787 -0.0216949 14.0272 0.124439 13.3392 0.440808C13.0666 0.574476 12.8199 0.757112 12.5993 0.98814C12.3656 1.25592 12.333 1.40206 12.5017 1.4261C13.2807 1.53547 13.8322 1.79712 14.1568 2.21078L14.2738 2.42999C14.3648 2.58814 14.4556 2.86813 14.5466 3.26959C14.6373 3.67104 14.6959 4.11513 14.7217 4.60161C14.7865 5.48998 14.7865 6.25044 14.7217 6.88305C14.6567 7.51592 14.5953 8.00859 14.5367 8.36146C14.4782 8.71433 14.3906 9.00027 14.2738 9.21922C14.1568 9.43823 14.079 9.57209 14.04 9.62067C14.0011 9.66926 13.9686 9.69988 13.9428 9.71189C13.7741 9.7725 13.5986 9.80337 13.4169 9.80337C13.235 9.80337 13.0145 9.7181 12.7549 9.54767C12.4954 9.37724 12.226 9.14315 11.9468 8.845C11.6677 8.54678 11.3528 8.13005 11.0022 7.59474C10.6518 7.05942 10.2883 6.42675 9.91181 5.69672L9.60031 5.16729C9.40559 4.82669 9.13958 4.33075 8.80204 3.67993C8.46428 3.02884 8.16575 2.39904 7.90623 1.79066C7.80249 1.53515 7.64664 1.34063 7.43895 1.20677L7.34149 1.15185C7.27669 1.10327 7.17268 1.05168 7.03 0.996706C6.88711 0.941794 6.73801 0.902415 6.58209 0.878187L1.24646 0.914498C0.701226 0.914498 0.33128 1.03027 0.136486 1.26149L0.0585273 1.37086C0.0195821 1.43178 -6.10352e-05 1.52908 -6.10352e-05 1.663C-6.10352e-05 1.79686 0.0388842 1.96115 0.116843 2.15568C0.895747 3.87145 1.74279 5.52617 2.65797 7.12009C3.57315 8.71402 4.36842 9.99796 5.04331 10.9708C5.71834 11.9443 6.40639 12.8631 7.10748 13.7268C7.80856 14.5907 8.27263 15.1444 8.49968 15.3876C8.72701 15.6313 8.90557 15.8135 9.03537 15.9351L9.52229 16.3731C9.83385 16.6652 10.2914 17.015 10.8951 17.4225C11.4989 17.8303 12.1674 18.2317 12.9008 18.6275C13.6344 19.0226 14.4879 19.3451 15.4617 19.5944C16.4353 19.8441 17.3829 19.9442 18.3047 19.8959L20.5442 19.8959C20.9984 19.8591 21.3425 19.7253 21.5763 19.4943L21.6538 19.4028C21.7059 19.3302 21.7547 19.2173 21.7997 19.0655C21.8453 18.9134 21.8679 18.7459 21.8679 18.5636C21.8546 18.0405 21.8971 17.5691 21.9942 17.1493C22.0913 16.7297 22.2019 16.4134 22.3256 16.2003C22.4493 15.9874 22.5889 15.8078 22.7442 15.6622C22.8998 15.5162 23.0107 15.4278 23.0758 15.3974C23.1404 15.3668 23.1921 15.346 23.231 15.3335C23.5426 15.2362 23.9092 15.3305 24.3316 15.6167C24.7535 15.9026 25.1493 16.2557 25.5196 16.6753C25.8896 17.0953 26.3341 17.5665 26.8533 18.0896C27.3728 18.6129 27.8271 19.0018 28.2164 19.2577L28.6057 19.4767C28.8657 19.6229 29.2033 19.7567 29.6188 19.8784C30.0335 20 30.3969 20.0304 30.709 19.9696L35.6939 19.8967C36.1869 19.8967 36.5706 19.8202 36.8427 19.6684C37.1154 19.5163 37.2774 19.3488 37.3297 19.1665C37.3818 18.9841 37.3846 18.7771 37.3395 18.5457C37.2934 18.3148 37.2479 18.1534 37.2026 18.0622Z" fill="rgb(255,255,255)" fill-rule="nonzero" />
	</g>
</svg>
