<svg viewBox="0 0 134 66" xmlns="http://www.w3.org/2000/svg" xmlns:xlink="http://www.w3.org/1999/xlink" width="134.000000" height="66.000000" fill="none" customFrame="#000000">
	<g id="first-screen__logo">
		<path id="LoftHouse" d="M1.44141 37L1.44141 12.3906L4.5 12.3906L4.5 33.9766L14.6602 33.9766L14.6602 37L1.44141 37ZM16.6289 31.7969L16.6289 23.1133Q16.6289 21.4609 18.1055 19.8789Q19.9336 17.9805 22.6758 17.9805L22.6758 20.8281Q20.6016 20.8281 19.793 22.5508Q19.5469 23.0781 19.5469 23.6055L19.5469 31.3398Q19.5469 32.6406 20.7422 33.5547Q21.5859 34.1875 22.6758 34.1875L22.6758 37.0352Q19.3359 37.0352 17.5078 34.3281Q16.6289 32.9922 16.6289 31.7969ZM24.1875 37.0352L24.1875 34.1875Q26.0508 34.1875 26.8594 32.5Q27.1406 31.9375 27.1406 31.4102L27.1406 23.6055Q27.1406 22.1641 25.9102 21.3203Q25.1367 20.8281 24.1523 20.8281L24.1523 17.9805Q27.3867 17.9805 29.1445 20.6172Q30.0234 21.918 30.0234 23.1133L30.0234 31.7969Q30.0234 33.5195 28.5469 35.1367Q26.8242 37 24.1875 37.0352ZM32.168 22.4102L32.168 19.5273L34.4883 19.5273L34.4883 17.4883Q34.4883 15.5195 35.7891 13.9023Q37.2305 12.2148 39.5156 12.1797L40.8164 12.1797L40.1484 15.0273L39.4805 15.0273Q37.4766 15.1328 37.4414 17.4883L37.4414 19.5625L39.832 19.5273L39.832 22.4102L37.4414 22.4102L37.4414 37L34.4883 37L34.4883 22.4102L32.168 22.4102ZM41.8008 21.0391L41.8008 18.1914L44.1211 18.1914L44.1211 12.1094L47.1094 12.1094L47.1094 18.1914L49.3594 18.1914L49.3594 21.0742L47.1094 21.0742L47.1094 31.1641Q47.1094 33.6602 49.1484 33.9414Q49.5352 34.0117 49.9219 34.0117L50.4141 34.0117L51.082 37L49.8164 37Q45.4922 36.9648 44.5078 33.7656Q44.1562 32.5703 44.1562 30.8125L44.1211 21.0391L41.8008 21.0391ZM52.6641 37L52.6641 12.3906L55.7227 12.3906L55.7227 23.1133L58.8867 23.1133L58.8867 26.1016L55.7227 26.1016L55.7227 37L52.6641 37ZM60.6445 26.1016L60.6445 23.1133L63.7734 23.1133L63.7734 12.3906L66.8672 12.3906L66.8672 37L63.7734 37L63.7734 26.1016L60.6445 26.1016ZM69.6094 31.7969L69.6094 23.1133Q69.6094 21.4609 71.0859 19.8789Q72.9141 17.9805 75.6562 17.9805L75.6562 20.8281Q73.582 20.8281 72.7734 22.5508Q72.5273 23.0781 72.5273 23.6055L72.5273 31.3398Q72.5273 32.6406 73.7227 33.5547Q74.5664 34.1875 75.6562 34.1875L75.6562 37.0352Q72.3164 37.0352 70.4883 34.3281Q69.6094 32.9922 69.6094 31.7969ZM77.168 37.0352L77.168 34.1875Q79.0312 34.1875 79.8398 32.5Q80.1211 31.9375 80.1211 31.4102L80.1211 23.6055Q80.1211 22.1641 78.8906 21.3203Q78.1172 20.8281 77.1328 20.8281L77.1328 17.9805Q80.3672 17.9805 82.125 20.6172Q83.0039 21.918 83.0039 23.1133L83.0039 31.7969Q83.0039 33.5195 81.5273 35.1367Q79.8047 37 77.168 37.0352ZM85.6758 31.9375L85.6758 18.0156L88.6641 18.0156L88.6641 31.5859Q88.6641 32.8516 89.9297 33.6953Q90.7734 34.2227 91.793 34.2227L91.793 37.1758Q88.418 37.1758 86.5898 34.5391Q85.6758 33.2031 85.6758 31.9375ZM93.3398 37.1758L93.3398 34.2227Q95.2383 34.2227 96.1172 32.7109Q96.4336 32.1484 96.4336 31.5859L96.4336 18.0156L99.4219 18.0156L99.4219 31.9375Q99.4219 33.5898 97.9102 35.207Q96.082 37.1406 93.3398 37.1758ZM101.461 32.0078L104.238 31.4805Q104.238 33.0625 105.891 33.9766Q106.699 34.3633 107.438 34.3984L107.438 37.1758Q104.027 37.1758 102.34 34.7148Q101.461 33.4141 101.461 32.0078ZM101.637 23.3594Q101.637 20.1602 104.555 18.6133Q105.961 17.875 107.367 17.875L107.367 20.6172Q105.75 20.6172 104.871 21.9531Q104.414 22.6211 104.414 23.3594Q104.414 24.4844 106.172 25.1875Q107.508 25.75 111.34 26.6641Q113.73 27.1562 114.75 29.0195Q115.277 30.0039 115.277 31.2344Q115.277 34.6094 112.57 36.2266Q110.988 37.1758 108.949 37.1758L108.949 34.3984Q110.566 34.3984 111.656 33.2734Q112.43 32.4648 112.43 31.375Q112.43 29.9688 109.652 29.125Q108.949 28.9141 107.402 28.5273Q105.75 28.1406 105.012 27.8945Q102.34 26.8398 101.777 24.6953Q101.637 24.0625 101.637 23.3594ZM108.914 20.6523L108.914 17.875Q111.938 17.875 113.801 20.125Q114.961 21.5664 114.961 23.1484L112.184 23.6055Q112.184 21.6719 110.074 20.8984Q109.441 20.6523 108.914 20.6523ZM117.352 31.7969L117.352 23.0781Q117.387 21.4609 118.898 19.8789Q120.727 18.0156 123.328 17.9805L123.328 20.7578Q121.641 20.7578 120.691 22.2344Q120.305 22.8672 120.305 23.3945L120.305 25.7852L128.18 25.7852L128.18 23.3945Q128.18 21.8125 126.562 21.0742Q125.824 20.7227 125.051 20.7227L125.051 17.9805Q127.477 17.9805 129.375 19.7031Q130.957 21.2148 130.992 23.043L130.992 28.6328L120.305 28.6328L120.305 31.7969Q120.305 32.7812 121.43 33.625Q122.344 34.2578 123.363 34.2578L123.363 37Q120.164 37 118.336 34.3984Q117.352 33.0273 117.352 31.7969ZM125.051 37L125.051 34.2227Q127.16 34.2227 128.215 32.3945Q128.426 32.0078 128.531 31.6562L131.027 32.5703Q130.395 34.9961 128.145 36.2266Q126.703 37 125.051 37Z" fill="rgb(255,255,255)" fill-rule="nonzero" />
		<path id="ЖИЛОЙ КОМПЛЕКС" d="M2.892 58.82L0.348 54.716L1.308 54.716L3.612 58.496L5.208 58.496L5.208 54.716L6.132 54.716L6.132 58.496L7.728 58.496L10.02 54.716L10.992 54.716L8.436 58.82L11.304 63.236L10.332 63.236L7.848 59.24L6.132 59.24L6.132 63.236L5.208 63.236L5.208 59.24L3.492 59.24L1.008 63.236L0.036 63.236L2.892 58.82ZM14.7038 61.976L19.9838 54.716L20.6798 54.716L20.6798 63.236L19.8398 63.236L19.8398 56.096L14.6438 63.236L13.8758 63.236L13.8758 54.716L14.7038 54.716L14.7038 61.976ZM26.2123 56.972C26.1163 58.1 25.9923 59.064 25.8403 59.864C25.6963 60.664 25.5123 61.32 25.2883 61.832C25.0723 62.336 24.8083 62.708 24.4963 62.948C24.1923 63.18 23.8323 63.296 23.4163 63.296L23.2723 62.492C23.4323 62.484 23.5843 62.452 23.7283 62.396C23.8803 62.34 24.0243 62.24 24.1603 62.096C24.2963 61.944 24.4243 61.74 24.5443 61.484C24.6643 61.22 24.7763 60.884 24.8803 60.476C24.9843 60.06 25.0763 59.56 25.1563 58.976C25.2443 58.392 25.3203 57.7 25.3843 56.9L25.5643 54.716L29.8963 54.716L29.8963 63.236L29.0683 63.236L29.0683 55.46L26.3323 55.46L26.2123 56.972ZM36.957 63.296C36.365 63.296 35.821 63.176 35.325 62.936C34.837 62.688 34.417 62.364 34.065 61.964C33.713 61.556 33.441 61.092 33.249 60.572C33.057 60.052 32.961 59.52 32.961 58.976C32.961 58.408 33.061 57.864 33.261 57.344C33.469 56.824 33.753 56.364 34.113 55.964C34.473 55.564 34.897 55.248 35.385 55.016C35.873 54.776 36.401 54.656 36.969 54.656C37.561 54.656 38.101 54.784 38.589 55.04C39.085 55.288 39.505 55.616 39.849 56.024C40.201 56.432 40.473 56.896 40.665 57.416C40.857 57.928 40.953 58.452 40.953 58.988C40.953 59.556 40.849 60.1 40.641 60.62C40.441 61.14 40.161 61.6 39.801 62C39.449 62.392 39.029 62.708 38.541 62.948C38.053 63.18 37.525 63.296 36.957 63.296ZM33.801 58.976C33.801 59.44 33.877 59.888 34.029 60.32C34.181 60.744 34.397 61.124 34.677 61.46C34.957 61.788 35.289 62.052 35.673 62.252C36.057 62.444 36.485 62.54 36.957 62.54C37.437 62.54 37.873 62.436 38.265 62.228C38.657 62.02 38.989 61.748 39.261 61.412C39.533 61.076 39.741 60.696 39.885 60.272C40.037 59.848 40.113 59.416 40.113 58.976C40.113 58.512 40.033 58.068 39.873 57.644C39.721 57.212 39.505 56.832 39.225 56.504C38.945 56.176 38.613 55.916 38.229 55.724C37.845 55.524 37.421 55.424 36.957 55.424C36.477 55.424 36.041 55.528 35.649 55.736C35.257 55.936 34.925 56.204 34.653 56.54C34.381 56.876 34.169 57.256 34.017 57.68C33.873 58.104 33.801 58.536 33.801 58.976ZM49.2567 52.244C49.2407 52.628 49.0767 52.936 48.7647 53.168C48.4607 53.392 48.0367 53.504 47.4927 53.504C46.9487 53.504 46.5207 53.392 46.2087 53.168C45.9047 52.936 45.7447 52.628 45.7287 52.244L46.2447 52.244C46.2447 52.348 46.2767 52.448 46.3407 52.544C46.4047 52.64 46.4927 52.724 46.6047 52.796C46.7167 52.868 46.8487 52.928 47.0007 52.976C47.1527 53.016 47.3207 53.036 47.5047 53.036C47.8487 53.036 48.1327 52.964 48.3567 52.82C48.5887 52.668 48.7207 52.476 48.7527 52.244L49.2567 52.244ZM44.8167 61.976L50.0967 54.716L50.7927 54.716L50.7927 63.236L49.9527 63.236L49.9527 56.096L44.7567 63.236L43.9887 63.236L43.9887 54.716L44.8167 54.716L44.8167 61.976ZM59.7319 58.496L61.0279 58.496L63.8119 54.716L64.7719 54.716L61.7839 58.82L65.0839 63.236L64.1239 63.236L61.0999 59.24L59.7319 59.24L59.7319 63.236L58.9039 63.236L58.9039 54.716L59.7319 54.716L59.7319 58.496ZM70.6545 63.296C70.0625 63.296 69.5185 63.176 69.0225 62.936C68.5345 62.688 68.1145 62.364 67.7625 61.964C67.4105 61.556 67.1385 61.092 66.9465 60.572C66.7545 60.052 66.6585 59.52 66.6585 58.976C66.6585 58.408 66.7585 57.864 66.9585 57.344C67.1665 56.824 67.4505 56.364 67.8105 55.964C68.1705 55.564 68.5945 55.248 69.0825 55.016C69.5705 54.776 70.0985 54.656 70.6665 54.656C71.2585 54.656 71.7985 54.784 72.2865 55.04C72.7825 55.288 73.2025 55.616 73.5465 56.024C73.8985 56.432 74.1705 56.896 74.3625 57.416C74.5545 57.928 74.6505 58.452 74.6505 58.988C74.6505 59.556 74.5465 60.1 74.3385 60.62C74.1385 61.14 73.8585 61.6 73.4985 62C73.1465 62.392 72.7265 62.708 72.2385 62.948C71.7505 63.18 71.2225 63.296 70.6545 63.296ZM67.4985 58.976C67.4985 59.44 67.5745 59.888 67.7265 60.32C67.8785 60.744 68.0945 61.124 68.3745 61.46C68.6545 61.788 68.9865 62.052 69.3705 62.252C69.7545 62.444 70.1825 62.54 70.6545 62.54C71.1345 62.54 71.5705 62.436 71.9625 62.228C72.3545 62.02 72.6865 61.748 72.9585 61.412C73.2305 61.076 73.4385 60.696 73.5825 60.272C73.7345 59.848 73.8105 59.416 73.8105 58.976C73.8105 58.512 73.7305 58.068 73.5705 57.644C73.4185 57.212 73.2025 56.832 72.9225 56.504C72.6425 56.176 72.3105 55.916 71.9265 55.724C71.5425 55.524 71.1185 55.424 70.6545 55.424C70.1745 55.424 69.7385 55.528 69.3465 55.736C68.9545 55.936 68.6225 56.204 68.3505 56.54C68.0785 56.876 67.8665 57.256 67.7145 57.68C67.5705 58.104 67.4985 58.536 67.4985 58.976ZM85.2222 63.236L85.2222 56.24L82.1142 61.652L81.6222 61.652L78.5142 56.24L78.5142 63.236L77.6742 63.236L77.6742 54.716L78.5382 54.716L81.8622 60.548L85.2102 54.716L86.0622 54.716L86.0622 63.236L85.2222 63.236ZM89.6848 54.716L96.2608 54.716L96.2608 63.236L95.4208 63.236L95.4208 55.46L90.5128 55.46L90.5128 63.236L89.6848 63.236L89.6848 54.716ZM101.787 56.972C101.691 58.1 101.567 59.064 101.415 59.864C101.271 60.664 101.087 61.32 100.863 61.832C100.647 62.336 100.383 62.708 100.071 62.948C99.767 63.18 99.407 63.296 98.991 63.296L98.847 62.492C99.007 62.484 99.159 62.452 99.303 62.396C99.455 62.34 99.599 62.24 99.735 62.096C99.871 61.944 99.999 61.74 100.119 61.484C100.239 61.22 100.351 60.884 100.455 60.476C100.559 60.06 100.651 59.56 100.731 58.976C100.819 58.392 100.895 57.7 100.959 56.9L101.139 54.716L105.471 54.716L105.471 63.236L104.643 63.236L104.643 55.46L101.907 55.46L101.787 56.972ZM114.824 62.492L114.824 63.236L109.1 63.236L109.1 54.716L114.716 54.716L114.716 55.46L109.94 55.46L109.94 58.532L114.104 58.532L114.104 59.24L109.94 59.24L109.94 62.492L114.824 62.492ZM118.692 58.496L119.988 58.496L122.772 54.716L123.732 54.716L120.744 58.82L124.044 63.236L123.084 63.236L120.06 59.24L118.692 59.24L118.692 63.236L117.864 63.236L117.864 54.716L118.692 54.716L118.692 58.496ZM125.607 58.916C125.607 58.404 125.695 57.896 125.871 57.392C126.055 56.88 126.319 56.424 126.663 56.024C127.007 55.624 127.431 55.3 127.935 55.052C128.439 54.796 129.011 54.668 129.651 54.668C130.411 54.668 131.059 54.84 131.595 55.184C132.139 55.528 132.539 55.976 132.795 56.528L132.135 56.936C131.999 56.656 131.831 56.42 131.631 56.228C131.439 56.036 131.231 55.88 131.007 55.76C130.783 55.64 130.551 55.556 130.311 55.508C130.071 55.452 129.835 55.424 129.603 55.424C129.091 55.424 128.639 55.528 128.247 55.736C127.855 55.944 127.523 56.216 127.251 56.552C126.987 56.888 126.787 57.268 126.651 57.692C126.515 58.108 126.447 58.532 126.447 58.964C126.447 59.436 126.527 59.888 126.687 60.32C126.855 60.752 127.079 61.136 127.359 61.472C127.647 61.8 127.983 62.064 128.367 62.264C128.759 62.456 129.183 62.552 129.639 62.552C129.879 62.552 130.123 62.524 130.371 62.468C130.627 62.404 130.871 62.308 131.103 62.18C131.343 62.044 131.563 61.88 131.763 61.688C131.963 61.488 132.131 61.248 132.267 60.968L132.963 61.328C132.827 61.648 132.635 61.932 132.387 62.18C132.139 62.42 131.863 62.624 131.559 62.792C131.255 62.96 130.931 63.088 130.587 63.176C130.251 63.264 129.919 63.308 129.591 63.308C129.007 63.308 128.471 63.18 127.983 62.924C127.495 62.668 127.075 62.336 126.723 61.928C126.371 61.512 126.095 61.044 125.895 60.524C125.703 59.996 125.607 59.46 125.607 58.916Z" fill="rgb(255,255,255)" fill-rule="nonzero" />
	</g>
</svg>
